<?xml version="1.0" encoding="UTF-8"?>
<svg xmlns="http://www.w3.org/2000/svg" width="360" height="470" viewBox="0 0 360 470">
  <rect x="8" y="8" width="344" height="454" rx="6" fill="#ffffff" stroke="#d0d0d0"/>

  <rect x="28" y="26" width="250" height="44" fill="#f2f2f2" stroke="none"/>
  <text x="38" y="55" font-family="Georgia, serif" font-size="26" fill="#333333">Information</text>
  <ellipse cx="270" cy="36" rx="6" ry="10" fill="#dd3333"/>

  <rect x="28" y="82" width="80" height="90" fill="#eaeaea" stroke="#d0d0d0"/>
  <rect x="116" y="82" width="156" height="90" fill="#eaeaea" stroke="#d0d0d0"/>
  <rect x="280" y="82" width="52" height="90" fill="#eaeaea" stroke="#d0d0d0"/>

  <rect x="116" y="176" width="156" height="16" fill="#f2f2f2" stroke="none"/>
  <text x="120" y="188" font-family="Arial, sans-serif" font-size="8" fill="#666666">(billedtekst placeholder)</text>

  <rect x="28" y="202" width="304" height="54" fill="#f2f2f2" stroke="none"/>
  <text x="32" y="224" font-family="Georgia, serif" font-size="14" fill="#222222">Rapport fra norsk regeringskommission</text>
  <text x="32" y="244" font-family="Georgia, serif" font-size="14" fill="#222222">skaber tvivl om lovligheden af</text>

  <rect x="28" y="264" width="96" height="120" fill="#fafafa" stroke="#e5e5e5"/>
  <rect x="132" y="264" width="96" height="120" fill="#fafafa" stroke="#e5e5e5"/>
  <rect x="236" y="264" width="96" height="120" fill="#fafafa" stroke="#e5e5e5"/>

  <rect x="28" y="394" width="120" height="54" fill="#e64b3c" stroke="none"/>
  <rect x="156" y="394" width="94" height="54" fill="#f08a2a" stroke="none"/>
  <rect x="258" y="394" width="74" height="54" fill="#eaeaea" stroke="#d0d0d0"/>

  <rect x="258" y="394" width="74" height="34" fill="#dcdcdc" stroke="none"/>
  <rect x="258" y="430" width="74" height="18" fill="#f2f2f2" stroke="none"/>
  <text x="262" y="443" font-family="Arial, sans-serif" font-size="8" fill="#555555">10 kr.</text>
</svg>
